<svg width="140" height="140" viewBox="0 0 140 140" fill="none" xmlns="http://www.w3.org/2000/svg">
<g clip-path="url(#clip0_142_6278)">
<path opacity="0.01" d="M140 0H0V140H140V0Z" fill="white"/>
<path fill-rule="evenodd" clip-rule="evenodd" d="M19 60L70 20L121 60V112C121 116.418 117.418 120 113 120H27C22.5817 120 19 116.418 19 112V60Z" fill="#131523"/>
<path fill-rule="evenodd" clip-rule="evenodd" d="M29 32C29 29.7909 30.7909 28 33 28H99L111 40V98H29V32Z" fill="#0030A6"/>
<path fill-rule="evenodd" clip-rule="evenodd" d="M29 28H99V40H111V108H29V28Z" fill="#336DFF"/>
<path d="M88 69H52C50.8954 69 50 69.8954 50 71C50 72.1046 50.8954 73 52 73H88C89.1046 73 90 72.1046 90 71C90 69.8954 89.1046 69 88 69Z" fill="white"/>
<path d="M78 77H62C60.8954 77 60 77.8954 60 79C60 80.1046 60.8954 81 62 81H78C79.1046 81 80 80.1046 80 79C80 77.8954 79.1046 77 78 77Z" fill="white"/>
<path fill-rule="evenodd" clip-rule="evenodd" d="M79.1129 41.5596L81.8874 44.4409L66.9737 58.8022L59.5859 51.4144L62.4144 48.586L67.0262 53.1972L79.1129 41.5596Z" fill="white"/>
<path fill-rule="evenodd" clip-rule="evenodd" d="M19 60L67.5314 98.0639C68.9808 99.2007 71.0192 99.2007 72.4686 98.0639L121 60V116C121 118.209 119.209 120 117 120H23C20.7909 120 19 118.209 19 116V60Z" fill="#D7DBEC"/>
</g>
<defs>
<clipPath id="clip0_142_6278">
<rect width="140" height="140" fill="white"/>
</clipPath>
</defs>
</svg>
